<?xml version="1.0" encoding="utf-8"?>
<svg version="1.1" xmlns="http://www.w3.org/2000/svg" width="461" height="550">
  <path d="M 203.063 169.088 C 208.501 169.401 212.917 168.76 213.286 171.33 C 213.687 174.124 213.782 178.409 213.911 181.955 C 213.985 183.886 214.06 185.817 214.137 187.806 C 214.186 189.299 214.235 190.792 214.286 192.33 C 218.246 192.659 222.206 192.989 226.286 193.33 C 226.233 190.982 226.233 190.982 226.18 188.587 C 226.152 186.543 226.125 184.499 226.098 182.455 C 226.073 181.422 226.048 180.389 226.022 179.326 C 225.996 176.659 225.668 173.251 226.286 171.33 C 227.268 168.278 232.156 168.545 235.359 168.688 C 237.69 168.792 241.906 168.664 242.286 171.33 C 242.81 175.002 242.565 178.694 242.473 182.455 C 242.453 184.015 242.453 184.015 242.432 185.607 C 242.397 188.181 242.343 190.755 242.286 193.33 C 243.318 193.443 244.351 193.556 245.414 193.673 C 255.868 195.445 263.07 201.005 269.286 209.33 C 273.865 218.372 276.084 227.369 273.496 237.384 C 271.841 242.048 270.053 246.424 267.286 250.33 C 266.196 251.869 263.286 254.33 263.286 254.33 C 263.286 254.33 265.049 255.567 266.848 256.83 C 275.788 263.881 280.94 271.771 282.286 281.33 C 283.786 291.985 280.636 303.037 273.286 312.33 C 264.17 321.298 255.11 325.33 242.286 325.33 C 242.309 326.822 242.332 328.315 242.356 329.853 C 242.374 331.784 242.392 333.715 242.411 335.705 C 242.434 337.63 242.457 339.556 242.481 341.54 C 242.286 346.33 242.257 347.458 240.072 348.188 C 238.239 348.801 237.536 348.595 234.286 348.58 C 233.213 348.585 232.14 348.59 231.036 348.595 C 228.286 348.33 226.712 348.032 226.286 346.33 C 225.52 343.275 226.118 339.246 226.161 335.705 C 226.179 333.773 226.197 331.842 226.215 329.853 C 226.238 328.36 226.262 326.867 226.286 325.33 C 221.995 325.33 217.706 325.33 213.286 325.33 C 213.309 326.822 213.332 328.315 213.356 329.853 C 213.374 331.784 213.392 333.715 213.411 335.705 C 213.434 337.63 213.457 339.556 213.481 341.54 C 213.286 346.33 213.429 346.259 211.429 348.259 C 208.679 348.524 208.536 348.595 205.286 348.58 C 203.677 348.587 202.463 348.658 200.822 348.666 C 198.072 348.401 197.402 347.738 197.286 346.33 C 197.018 343.078 197.118 339.246 197.161 335.705 C 197.179 333.773 197.197 331.842 197.215 329.853 C 197.238 328.36 197.262 326.867 197.286 325.33 C 194.704 325.347 194.704 325.347 192.071 325.365 C 189.83 325.374 187.589 325.383 185.348 325.392 C 184.212 325.4 183.075 325.409 181.905 325.417 C 179.031 325.426 176.158 325.382 173.286 325.33 C 172.286 324.33 172.286 324.33 172.153 320.986 C 172.157 318.928 172.157 318.928 172.161 316.83 C 172.158 315.458 172.155 314.086 172.153 312.673 C 172.286 309.33 172.286 309.33 173.286 308.33 C 176.908 308.044 180.531 307.88 184.161 307.708 C 185.192 307.583 186.223 307.458 187.286 307.33 C 188.989 303.922 188.404 300.237 188.399 296.474 C 188.399 294.592 188.399 292.71 188.399 290.771 C 188.394 288.705 188.388 286.638 188.383 284.572 C 188.381 282.467 188.38 280.362 188.379 278.258 C 188.375 272.711 188.365 267.164 188.354 261.617 C 188.344 255.96 188.339 250.303 188.334 244.646 C 188.324 233.54 188.307 221.435 188.286 210.33 C 184.933 209.887 184.933 209.744 179.723 210.106 C 174.286 210.044 174.714 210.687 172.286 209.33 C 172.055 206.107 172.055 205.107 172.098 201.267 C 172.104 199.997 172.111 198.728 172.118 197.419 C 172.286 194.33 172.286 194.33 173.286 193.33 C 177.312 193.256 181.322 193.237 185.348 193.267 C 187.058 193.274 187.058 193.274 188.803 193.281 C 191.631 193.293 194.458 193.31 197.286 193.33 C 197.251 191.848 197.216 190.367 197.18 188.841 C 197.153 186.919 197.126 184.997 197.098 183.017 C 197.063 181.103 197.028 179.188 196.993 177.216 C 197.422 170.058 195.961 169.487 203.063 169.088 Z M 208.286 210.33 C 208.615 222.539 208.946 234.749 209.286 247.33 C 216.711 247.453 216.711 247.453 224.286 247.58 C 225.831 247.616 227.377 247.652 228.969 247.69 C 236.4 247.75 241.918 247.643 248.286 243.33 C 251.615 240 254.039 236.499 254.286 232.33 C 254.673 225.788 252.759 219.709 246.973 214.08 C 241.741 210.673 236.393 210.08 230.258 210.134 C 228.518 210.142 228.518 210.142 226.743 210.149 C 225.292 210.168 223.842 210.186 222.348 210.205 C 217.707 210.246 213.067 210.287 208.286 210.33 Z M 209.286 265.33 C 209.286 279.19 209.286 293.05 209.286 307.33 C 215.06 307.391 220.836 307.453 226.786 307.517 C 228.592 307.544 230.399 307.572 232.26 307.6 C 234.423 307.611 234.423 307.611 236.629 307.622 C 238.096 307.638 239.562 307.654 241.073 307.67 C 247.85 307.122 252.121 305.382 257.161 300.83 C 261.944 293.941 263.258 286.956 261.473 280.142 C 260.037 274.657 255.4 269.777 250.286 267.33 C 245.691 265.131 239.972 265.09 234.286 265.134 C 232.966 265.139 231.646 265.144 230.286 265.149 C 227.81 265.177 227.81 265.177 225.286 265.205 C 220.006 265.246 214.725 265.287 209.286 265.33 Z" fill="#FB8D24" style="stroke-width: 1px;"/>
  <path d="M 276.52 128.935 C 296.126 146.177 305.532 168.665 309.317 194.158 C 309.286 197.33 308.476 200.421 306.286 202.33 C 303.97 204.35 303.286 204.33 297.286 204.33 C 293.654 201.708 292.461 199.996 291.317 195.65 C 291.142 194.265 290.966 192.881 290.786 191.455 C 288.11 174.075 282.083 160.33 270.286 147.33 C 270.286 146.67 263.563 141.143 262.161 140.017 C 248.495 129.324 232.337 125.828 215.286 127.33 C 195.483 130.37 179.247 139.785 166.973 155.58 C 149.48 181.182 149.954 211.028 149.905 240.793 C 149.785 283.83 147.643 295.968 137.286 296.33 C 132.397 296.155 130.814 295.858 127.286 292.33 C 125.647 291.029 128.784 281.587 129.768 276.232 C 132.516 260.773 132.855 245.621 132.848 229.955 C 132.884 193.3 137.292 161.722 162.723 133.517 C 195.395 104.285 241.936 101.076 276.52 128.935 Z" fill="#7BB694" style="stroke-width: 1px;"/>
  <path d="M 325.41 37.079 C 327.377 38.819 329.337 40.568 331.285 42.329 C 333.451 44.185 333.451 44.185 335.66 46.079 C 347.1 56.336 347.1 56.336 347.598 61.704 C 347.285 65.329 345.677 67.655 343.285 69.329 C 341.624 70.492 339.245 70.849 337.285 70.329 C 333.907 69.432 332.285 67.329 329.16 63.704 C 324.609 58.566 319.717 54.496 314.285 50.329 C 312.672 49.086 312.672 49.086 311.027 47.817 C 280.323 24.981 241.89 17.077 204.285 22.454 C 175.927 27.771 151.377 38.956 130.356 58.758 C 129.492 59.436 125.078 63.345 122.848 66.517 C 120.285 69.329 120.285 69.329 117.285 70.392 C 114.285 70.329 114.285 70.329 109.285 67.329 C 107.285 64.329 107.285 64.329 107.223 61.142 C 111.706 45.054 135.548 31.513 149.16 23.642 C 204.48 -6.49 276.014 -4.46 325.41 37.079 Z" fill="#7DB796" style="stroke-width: 1px;"/>
  <path d="M 258.285 66.329 C 274.998 72.029 289.928 79.752 303.285 91.329 C 304.08 91.992 304.876 92.654 305.695 93.337 C 334.259 117.872 346.95 151.787 353.378 187.912 C 354.863 195.949 357.132 203.361 360.246 210.938 C 361.395 214.689 361.499 216.615 360.285 220.329 C 355.805 224.809 353.576 226.084 349.499 224.615 C 346.974 223.705 345.773 220.585 344.535 218.204 C 343.839 216.881 343.143 215.559 342.426 214.196 C 337.765 203.599 335.586 192.398 333.41 181.079 C 328.652 157.516 320.813 137.043 305.285 118.329 C 304.517 117.397 303.748 116.465 302.957 115.505 C 287.788 97.963 267.963 87.826 245.98 81.356 C 243.285 80.329 243.285 80.329 240.285 77.329 C 239.195 71.879 239.396 70.812 242.285 66.329 C 247.989 63.477 252.354 64.75 258.285 66.329 Z" fill="#FB8C22" style="stroke-width: 1px;"/>
  <path d="M 311.285 232.329 C 315.492 234.071 317.345 238.343 319.035 243.579 C 329.622 273.374 351.855 296.265 379.691 310.622 C 383.077 312.23 386.483 313.649 389.973 315.017 C 394.992 317.202 396.471 317.963 399.285 322.329 C 399.2 327.279 398.842 328.772 395.285 332.329 C 377.147 333.939 358.288 320.06 344.676 309.247 C 324.022 291.472 302.409 269.101 299.285 242.329 C 298.939 239.362 299.731 236.931 302.473 233.954 C 305.285 232.329 308.525 231.186 311.285 232.329 Z" fill="#173D2B" style="stroke-width: 1px;"/>
  <path d="M 108.848 149.329 C 112.286 150.329 112.286 150.329 114.786 152.454 C 117.163 157.011 115.707 160.928 114.27 165.704 C 113.863 166.9 109.262 182.876 107.848 189.829 C 102.612 215.055 90.568 237.509 69.121 252.548 C 52.388 263.25 52.388 263.25 43.223 263.392 C 40.286 262.329 40.286 262.329 37.286 258.329 C 36.286 254.329 36.286 251.187 38.286 249.329 C 42.076 246.486 45.507 244.752 49.786 242.767 C 67.156 234.136 79.273 220.441 86.286 202.329 C 88.226 195.386 89.744 188.37 91.286 181.329 C 96.56 159.781 96.56 159.781 100.286 152.329 C 101.787 149.829 105.286 149.329 108.848 149.329 Z" fill="#183E2C" style="stroke-width: 1px;"/>
  <path d="M 213.16 64.954 C 215.767 67.867 216.285 69.433 216.285 73.329 C 213.285 78.329 213.285 78.329 210.285 80.329 C 207.36 80.99 204.419 81.584 201.473 82.142 C 177.499 87.066 152.091 98.779 137.973 119.767 C 137.416 120.612 136.872 121.492 136.285 122.329 C 133.554 126.219 128.747 124.582 125.285 123.329 C 123.512 122.687 121.431 121.26 121.285 119.329 C 121.285 109.434 128.744 103.32 135.238 96.352 C 149.541 82.159 192.032 53.012 213.16 64.954 Z" fill="#FB8C23" style="stroke-width: 1px;"/>
  <path d="M 200.285 375.329 C 202.596 375.794 205.025 377.986 205.285 380.329 C 207.419 399.538 186.671 416.927 174.285 429.329 C 170.77 432.562 160.815 440.159 159.543 441.102 C 147.835 449.379 142.98 450.807 140.285 448.329 C 136.285 444.329 136.285 444.329 135.723 440.954 C 136.466 436.166 137.746 434.66 141.285 431.329 C 143.931 429.663 146.58 428 149.25 426.372 C 154.8 422.636 165.493 412.215 166.726 411.079 C 176.083 402.226 182.473 391.386 188.558 380.13 C 191.654 375.108 196.144 374.496 200.285 375.329 Z" fill="#173D2B" style="stroke-width: 1px;"/>
  <path d="M 121.91 305.454 C 126.101 306.541 127.688 307.891 130.285 311.329 C 131.571 313.687 131.285 316.329 129.949 319.091 C 125.153 325.972 120.083 332.27 114.285 338.329 C 113.274 339.452 113.274 339.452 112.242 340.599 C 100.631 353.037 84.522 364.712 67.285 367.329 C 64.278 367.786 61.285 367.329 58.41 365.204 C 56.285 362.329 55.174 359.161 56.285 356.329 C 58.392 350.956 64.465 348.937 70.687 346.72 C 88.885 339.685 103.837 325.919 114.973 310.142 C 118.285 306.329 119.213 305.115 121.91 305.454 Z" fill="#173D2B" style="stroke-width: 1px;"/>
  <path d="M 252.285 386.329 C 255.977 388.226 257.368 392.087 259.535 396.454 C 268.455 413.438 282.473 424.027 298.098 434.579 C 301.285 437.329 301.285 437.329 302.473 440.392 C 302.285 443.329 301.565 446.617 299.285 448.329 C 296.607 450.341 293.917 450.608 289.285 449.329 C 280.214 444.462 271.967 438.147 264.285 431.329 C 263.393 430.556 262.501 429.782 261.582 428.985 C 252.775 420.832 240.227 406.121 238.91 393.829 C 239.285 390.329 239.285 390.329 243.285 386.329 C 246.47 384.736 249.617 384.958 252.285 386.329 Z" fill="#183E2C" style="stroke-width: 1px;"/>
  <path d="M 84.285 114.329 C 86.541 115.012 88.658 117.057 89.285 119.329 C 90.576 124.01 88.529 128.438 85.723 133.454 C 78.052 148.239 73.784 163.713 71.058 180.067 C 69.379 189.627 69.379 189.627 65.285 193.329 C 62.348 194.329 62.348 194.329 59.285 194.329 C 54.642 193.328 52.371 192.195 52.285 189.329 C 51.573 165.634 61.048 132.423 74.285 116.329 C 76.444 113.704 81.032 113.344 84.285 114.329 Z" fill="#FB8D24" style="stroke-width: 1px;"/>
  <path d="M 309.214 315.043 C 313.139 316.115 314.761 321.138 317.285 324.329 C 319.656 327.327 324.91 332.892 324.91 332.892 C 324.91 332.892 344.509 352.162 360.977 358.447 C 365.289 360.259 373.686 362.628 376.285 367.329 C 377.969 370.374 376.393 375.764 373.285 377.329 C 361.889 383.066 346.567 369.71 337.285 364.329 C 334.284 362.15 324.183 353.789 321.848 352.079 C 318.683 349.636 313.109 343.215 311.91 342.079 C 308.479 338.485 302.981 330.506 302.981 330.506 C 302.981 330.506 297.379 322.612 299.285 319.329 C 301.307 315.846 305.329 313.981 309.214 315.043 Z" fill="#D5C2A6" style="stroke-width: 1px;"/>
  <path d="M 278.598 352.142 C 283.152 353.249 285.76 358.394 288.286 362.33 C 290.987 366.538 293.711 370.834 297.286 374.33 C 309.216 385.996 323.068 395.768 337.993 403.462 C 341.755 405.596 345.093 409.803 344.072 414.044 C 343.268 417.38 339.718 419.38 336.286 419.33 C 321.939 419.12 310.643 406.448 299.286 397.33 C 298.319 396.572 292.8 391.62 289.143 387.873 C 280.718 379.049 276.786 372.455 276.786 372.455 C 276.786 372.455 270.676 364.899 270.286 360.33 C 270.107 358.229 270.804 355.83 272.286 354.33 C 273.851 352.746 276.434 351.616 278.598 352.142 Z" fill="#D5C2A6" style="stroke-width: 1px;"/>
  <path d="M 159.285 341.329 C 162.545 342.832 164.539 347.965 163.285 351.329 C 155.79 371.442 135.78 389.346 114.504 399.888 C 109.78 401.502 105.598 402.703 102.285 400.329 C 99.456 398.302 98.197 393.635 99.285 390.329 C 100.783 385.777 105.749 383.919 110.785 381.704 C 119.028 377.739 124.98 372.89 131.285 366.329 C 132.646 364.926 143.387 351.218 146.988 345.489 C 150.592 340.531 155.355 339.517 159.285 341.329 Z" fill="#7CB695" style="stroke-width: 1px;"/>
  <path d="M 251.285 450.329 C 256.053 454.634 256.053 454.634 257.285 458.329 C 257.285 461.329 256.521 464.564 254.285 466.329 C 252.176 467.994 248.921 467.853 246.285 467.329 C 244.052 466.885 243.32 465.868 240.348 463.954 C 231.681 458.697 224.379 457.386 214.285 458.329 C 208.177 460.055 203.732 462.027 198.473 465.579 C 194.285 468.329 191.684 469.236 188.285 468.329 C 186.008 467.721 183.941 465.593 183.285 463.329 C 182.388 460.232 183.285 457.329 185.41 453.892 C 204.113 436.697 230.747 436.655 251.285 450.329 Z" fill="#7DB796" style="stroke-width: 1px;"/>
  <path d="M 101.285 262.329 C 105.214 265.115 106.427 268.614 105.285 272.329 C 103.535 275.977 103.535 275.977 101.285 279.704 C 100.171 281.572 98.32 284.471 93.285 290.329 C 88.201 296.31 85.852 298.438 75.285 307.329 C 67.892 312.446 54.618 318.329 42.285 318.329 C 40.108 318.294 39.645 317.331 38.285 314.329 C 38.285 308.329 38.285 307.615 40.41 305.767 C 44.971 302.897 49.517 301.422 54.605 299.712 C 73.187 292.729 83.428 278.758 93.285 262.329 C 94.357 261.115 97.285 260.401 101.285 262.329 Z" fill="#D5C1A6" style="stroke-width: 1px;"/>
  <path d="M 372.285 115.329 C 374.133 114.564 377.095 113.722 378.285 115.329 C 387.813 128.193 400.947 164.464 402.285 187.329 C 400.285 191.329 400.285 191.329 396.973 192.767 C 393.285 193.329 391.08 192.357 388.999 190.186 C 385.415 186.447 385.525 180.72 384.723 175.204 C 383.225 165.848 380.858 156.998 377.848 148.017 C 377.476 146.903 377.105 145.79 376.722 144.643 C 374.951 139.524 373.038 134.7 370.5 129.911 C 368.285 125.329 367.256 122.783 368.285 119.329 C 368.823 117.522 370.543 116.051 372.285 115.329 Z" fill="#D4C1A6" style="stroke-width: 1px;"/>
  <path d="M 375.535 238.642 C 380.216 238.655 387.285 246.33 387.285 246.33 C 387.285 246.33 394.321 250.407 397.918 252.337 C 401.413 254.405 404.358 256.512 407.285 259.33 C 407.91 263.392 407.91 263.392 407.285 267.33 C 403.285 271.33 403.285 271.33 399.965 271.771 C 388.529 270.399 378.281 262.121 370.223 254.392 C 367.693 250.394 366.787 246.761 368.285 243.33 C 369.437 240.693 372.657 238.634 375.535 238.642 Z" fill="#183D2C" style="stroke-width: 1px;"/>
</svg>